<svg class="animated" id="freepik_stories-stress" xmlns="http://www.w3.org/2000/svg" viewBox="0 0 500 500" version="1.1" xmlns:xlink="http://www.w3.org/1999/xlink" xmlns:svgjs="http://svgjs.com/svgjs"><style>svg#freepik_stories-stress:not(.animated) .animable {opacity: 0;}svg#freepik_stories-stress.animated #freepik--background-complete--inject-75 {animation: 1s 1 forwards cubic-bezier(.36,-0.01,.5,1.38) zoomIn;animation-delay: 0s;}svg#freepik_stories-stress.animated #freepik--Desk--inject-75 {animation: 1s 1 forwards cubic-bezier(.36,-0.01,.5,1.38) zoomOut;animation-delay: 0s;}svg#freepik_stories-stress.animated #freepik--Shadow--inject-75 {animation: 1s 1 forwards cubic-bezier(.36,-0.01,.5,1.38) zoomIn;animation-delay: 0s;}svg#freepik_stories-stress.animated #freepik--Character--inject-75 {animation: 1s 1 forwards cubic-bezier(.36,-0.01,.5,1.38) slideDown;animation-delay: 0s;}svg#freepik_stories-stress.animated #freepik--Papers--inject-75 {animation: 1s 1 forwards cubic-bezier(.36,-0.01,.5,1.38) slideDown;animation-delay: 0s;}svg#freepik_stories-stress.animated #freepik--Device--inject-75 {animation: 1s 1 forwards cubic-bezier(.36,-0.01,.5,1.38) lightSpeedRight;animation-delay: 0s;}svg#freepik_stories-stress.animated #freepik--Plant--inject-75 {animation: 1s 1 forwards cubic-bezier(.36,-0.01,.5,1.38) slideDown;animation-delay: 0s;}svg#freepik_stories-stress.animated #freepik--Mug--inject-75 {animation: 1s 1 forwards cubic-bezier(.36,-0.01,.5,1.38) zoomOut;animation-delay: 0s;}svg#freepik_stories-stress.animated #freepik--Line--inject-75 {animation: 1s 1 forwards cubic-bezier(.36,-0.01,.5,1.38) lightSpeedLeft;animation-delay: 0s;}            @keyframes zoomIn {                0% {                    opacity: 0;                    transform: scale(0.5);                }                100% {                    opacity: 1;                    transform: scale(1);                }            }                    @keyframes zoomOut {                0% {                    opacity: 0;                    transform: scale(1.5);                }                100% {                    opacity: 1;                    transform: scale(1);                }            }                    @keyframes slideDown {                0% {                    opacity: 0;                    transform: translateY(-30px);                }                100% {                    opacity: 1;                    transform: translateY(0);                }            }                    @keyframes lightSpeedRight {              from {                transform: translate3d(50%, 0, 0) skewX(-20deg);                opacity: 0;              }              60% {                transform: skewX(10deg);                opacity: 1;              }              80% {                transform: skewX(-2deg);              }              to {                opacity: 1;                transform: translate3d(0, 0, 0);              }            }                    @keyframes lightSpeedLeft {              from {                transform: translate3d(-50%, 0, 0) skewX(20deg);                opacity: 0;              }              60% {                transform: skewX(-10deg);                opacity: 1;              }              80% {                transform: skewX(2deg);              }              to {                opacity: 1;                transform: translate3d(0, 0, 0);              }            }        </style><g id="freepik--background-complete--inject-75" class="animable" style="transform-origin: 248.815px 206.24px;"><g id="el9m6wsp0v9d7"><circle cx="388.84" cy="96.45" r="45.99" style="fill: rgb(235, 235, 235); transform-origin: 388.84px 96.45px; transform: rotate(-83.06deg);" class="animable"></circle></g><circle cx="390.95" cy="97.47" r="43.89" style="fill: rgb(219, 219, 219); transform-origin: 390.95px 97.47px;" id="elyvs70dlyk5f" class="animable"></circle><circle cx="390.95" cy="97.47" r="41.12" style="fill: rgb(255, 255, 255); transform-origin: 390.95px 97.47px;" id="el20u9t9anf6k" class="animable"></circle><g id="elepxbj4iwn3f"><path d="M431.13,88.75c-18.72,11.34-49.49,30-66.69,40.15a41.11,41.11,0,0,1-11.24-15.1l56.89-52.72A41.14,41.14,0,0,1,431.13,88.75Z" style="fill: rgb(235, 235, 235); opacity: 0.5; transform-origin: 392.165px 94.99px;" class="animable"></path></g><g id="el8m7ppxtuwld"><path d="M432,98.91a40.6,40.6,0,0,1-2.71,13.36L378,136.52a40,40,0,0,1-6.48-2.78C387.05,124.79,415.36,108.5,432,98.91Z" style="fill: rgb(235, 235, 235); opacity: 0.5; transform-origin: 401.76px 117.715px;" class="animable"></path></g><rect x="390.55" y="59.34" width="0.79" height="6.23" style="fill: rgb(199, 199, 199); transform-origin: 390.945px 62.455px;" id="el9scdn6gpg6f" class="animable"></rect><g id="elw6fqn4obhpi"><rect x="373.04" y="64.03" width="0.8" height="6.23" style="fill: rgb(199, 199, 199); transform-origin: 373.44px 67.145px; transform: rotate(-30deg);" class="animable"></rect></g><g id="eldxdsfr5bszk"><rect x="360.23" y="76.85" width="0.79" height="6.23" style="fill: rgb(199, 199, 199); transform-origin: 360.625px 79.965px; transform: rotate(-60deg);" class="animable"></rect></g><rect x="352.82" y="97.08" width="6.23" height="0.79" style="fill: rgb(199, 199, 199); transform-origin: 355.935px 97.475px;" id="elumsi97cecg" class="animable"></rect><g id="eli1me0lgr8ob"><rect x="357.51" y="114.58" width="6.23" height="0.79" style="fill: rgb(199, 199, 199); transform-origin: 360.625px 114.975px; transform: rotate(-30deg);" class="animable"></rect></g><g id="elneux8b7w0r9"><rect x="370.32" y="127.4" width="6.23" height="0.8" style="fill: rgb(199, 199, 199); transform-origin: 373.435px 127.8px; transform: rotate(-60.03deg);" class="animable"></rect></g><rect x="390.55" y="129.37" width="0.79" height="6.23" style="fill: rgb(199, 199, 199); transform-origin: 390.945px 132.485px;" id="elpk59bhpomj" class="animable"></rect><g id="elgzrlpy422w"><rect x="408.06" y="124.68" width="0.8" height="6.23" style="fill: rgb(199, 199, 199); transform-origin: 408.46px 127.795px; transform: rotate(-30deg);" class="animable"></rect></g><g id="elw83dkn7dsor"><rect x="420.87" y="111.87" width="0.79" height="6.23" style="fill: rgb(199, 199, 199); transform-origin: 421.265px 114.985px; transform: rotate(-60deg);" class="animable"></rect></g><rect x="422.85" y="97.08" width="6.23" height="0.79" style="fill: rgb(199, 199, 199); transform-origin: 425.965px 97.475px;" id="el03d3fu1afedx" class="animable"></rect><g id="el0rxvm7zgc9m"><rect x="418.16" y="79.57" width="6.23" height="0.79" style="fill: rgb(199, 199, 199); transform-origin: 421.275px 79.965px; transform: rotate(-29.8865deg);" class="animable"></rect></g><g id="elka8ex444ib"><rect x="405.34" y="66.75" width="6.23" height="0.8" style="fill: rgb(199, 199, 199); transform-origin: 408.455px 67.15px; transform: rotate(-60.03deg);" class="animable"></rect></g><polygon points="391.55 62.16 392.9 100.25 389 100.2 390.49 62.15 391.55 62.16" style="fill: rgb(199, 199, 199); transform-origin: 390.95px 81.2px;" id="elbabf2vqctde" class="animable"></polygon><polygon points="415.27 84.19 389.64 100.55 387.78 97.12 414.76 83.26 415.27 84.19" style="fill: rgb(166, 166, 166); transform-origin: 401.525px 91.905px;" id="el50pqxn6krg" class="animable"></polygon><circle cx="390.95" cy="97.47" r="1.33" style="fill: rgb(199, 199, 199); transform-origin: 390.95px 97.47px;" id="elek3ux26n64i" class="animable"></circle><path d="M280.56,310.91H53.21V42.57H280.56ZM58.67,305.44H275.09V48H58.67Z" style="fill: rgb(235, 235, 235); transform-origin: 166.885px 176.74px;" id="elcrj0j2bk2v" class="animable"></path><rect x="162.02" y="49.46" width="5.47" height="258.71" style="fill: rgb(235, 235, 235); transform-origin: 164.755px 178.815px;" id="el431bybl10bc" class="animable"></rect><rect x="48.25" y="53.62" width="237.27" height="7.61" style="fill: rgb(235, 235, 235); transform-origin: 166.885px 57.425px;" id="el2pcsruqtqox" class="animable"></rect><rect x="48.25" y="62.19" width="237.27" height="7.61" style="fill: rgb(235, 235, 235); transform-origin: 166.885px 65.995px;" id="elnhlz6nu2oc" class="animable"></rect><rect x="48.25" y="70.75" width="237.27" height="7.61" style="fill: rgb(235, 235, 235); transform-origin: 166.885px 74.555px;" id="eljrmweji11ec" class="animable"></rect><rect x="48.25" y="79.32" width="237.27" height="7.61" style="fill: rgb(235, 235, 235); transform-origin: 166.885px 83.125px;" id="ell8qp6i0qy4" class="animable"></rect><rect x="48.25" y="87.88" width="237.27" height="7.61" style="fill: rgb(235, 235, 235); transform-origin: 166.885px 91.685px;" id="el6tgemgkdbgy" class="animable"></rect><rect x="48.25" y="96.45" width="237.27" height="7.61" style="fill: rgb(235, 235, 235); transform-origin: 166.885px 100.255px;" id="eltqpze8wmv1k" class="animable"></rect><rect x="48.25" y="105.01" width="237.27" height="7.61" style="fill: rgb(235, 235, 235); transform-origin: 166.885px 108.815px;" id="el4afzjx5tpn7" class="animable"></rect><rect x="48.25" y="113.58" width="237.27" height="7.61" style="fill: rgb(235, 235, 235); transform-origin: 166.885px 117.385px;" id="elh2tnuh7kjx" class="animable"></rect><rect x="48.25" y="122.15" width="237.27" height="7.61" style="fill: rgb(235, 235, 235); transform-origin: 166.885px 125.955px;" id="elvwo7jubluem" class="animable"></rect><rect x="267.91" y="52.08" width="1.37" height="148.16" style="fill: rgb(38, 50, 56); transform-origin: 268.595px 126.16px;" id="elg1i0xjefdx" class="animable"></rect><polygon points="271.02 206.6 266.17 206.6 267.39 199.63 269.81 199.63 271.02 206.6" style="fill: rgb(38, 50, 56); transform-origin: 268.595px 203.115px;" id="elx7r0ykjavs" class="animable"></polygon><rect x="272.84" y="52.08" width="1.37" height="226.54" style="fill: rgb(38, 50, 56); transform-origin: 273.525px 165.35px;" id="el04s9x34ji0kp" class="animable"></rect><polygon points="275.94 283.74 271.09 283.74 272.31 276.77 274.73 276.77 275.94 283.74" style="fill: rgb(38, 50, 56); transform-origin: 273.515px 280.255px;" id="elw07c7ykht6e" class="animable"></polygon><rect x="39.77" y="41.5" width="254.24" height="15.93" style="fill: rgb(219, 219, 219); transform-origin: 166.89px 49.465px;" id="ellgypyl834sf" class="animable"></rect><rect x="364.37" y="309.24" width="64.25" height="61.74" style="fill: rgb(235, 235, 235); transform-origin: 396.495px 340.11px;" id="elpj1qylcvlw" class="animable"></rect><rect x="428.62" y="309.24" width="24.42" height="61.74" style="fill: rgb(199, 199, 199); transform-origin: 440.83px 340.11px;" id="elkru7oq3o3c8" class="animable"></rect><polygon points="364.37 340.11 428.62 340.11 378.44 341.7 364.37 340.11" style="fill: rgb(199, 199, 199); transform-origin: 396.495px 340.905px;" id="elttf98ras6l" class="animable"></polygon><polygon points="428.62 363.52 364.37 363.52 414.55 365.11 428.62 363.52" style="fill: rgb(199, 199, 199); transform-origin: 396.495px 364.315px;" id="elnf9s7kdsyn8" class="animable"></polygon><polygon points="364.37 322.86 405.07 322.86 368.89 324.15 364.37 322.86" style="fill: rgb(199, 199, 199); transform-origin: 384.72px 323.505px;" id="elg262bq808we" class="animable"></polygon><polygon points="428.62 354.43 387.93 354.43 424.1 355.73 428.62 354.43" style="fill: rgb(199, 199, 199); transform-origin: 408.275px 355.08px;" id="el7vg43my6v8q" class="animable"></polygon><polygon points="379.79 315.98 425.69 315.98 418.04 316.76 379.79 315.98" style="fill: rgb(199, 199, 199); transform-origin: 402.74px 316.37px;" id="el2pptpc6aws" class="animable"></polygon><polygon points="370.62 346.73 416.52 346.73 408.87 347.51 370.62 346.73" style="fill: rgb(199, 199, 199); transform-origin: 393.57px 347.12px;" id="elhp0m7rs7p6" class="animable"></polygon><polygon points="398.85 328.73 428.62 328.73 433.94 330.81 398.85 328.73" style="fill: rgb(235, 235, 235); transform-origin: 416.395px 329.77px;" id="elnt4811d473" class="animable"></polygon><polygon points="356.17 328.73 385.95 328.73 391.27 330.81 356.17 328.73" style="fill: rgb(235, 235, 235); transform-origin: 373.72px 329.77px;" id="eldumlefr280w" class="animable"></polygon><polygon points="394.38 356.48 364.6 356.48 359.28 358.56 394.38 356.48" style="fill: rgb(235, 235, 235); transform-origin: 376.83px 357.52px;" id="elk3sq90ukh8" class="animable"></polygon><polygon points="428.62 349.44 452.54 349.44 457.86 351.51 428.62 349.44" style="fill: rgb(199, 199, 199); transform-origin: 443.24px 350.475px;" id="el7clgxqw4epf" class="animable"></polygon><polygon points="436.97 340.11 455.51 340.11 453.04 338.42 436.97 340.11" style="fill: rgb(199, 199, 199); transform-origin: 446.24px 339.265px;" id="el2f20dwb5kcp" class="animable"></polygon></g><g id="freepik--Desk--inject-75" class="animable" style="transform-origin: 250px 370.72px;"><polygon points="30.67 370.72 85.5 370.48 140.34 370.39 250 370.22 359.66 370.39 414.5 370.48 469.33 370.72 414.5 370.97 359.66 371.06 250 371.22 140.34 371.05 85.5 370.97 30.67 370.72" style="fill: rgb(38, 50, 56); transform-origin: 250px 370.72px;" id="el052du0s6ht05" class="animable"></polygon></g><g id="freepik--Shadow--inject-75" class="animable" style="transform-origin: 250px 413.51px;"><ellipse cx="250" cy="413.51" rx="196.59" ry="34.5" style="fill: rgb(235, 235, 235); transform-origin: 250px 413.51px;" id="elu4sltvvf7e8" class="animable"></ellipse></g><g id="freepik--Character--inject-75" class="animable" style="transform-origin: 207.258px 245.65px;"><path d="M309.93,199.77c-1.77-3.78-13-33.73-26.28-46.31-7-6.67-28.42-22.81-33-19-4.19,3.44.58,9.3.58,9.3s-9.64-7.06-15.41-2.21,2.8,14.33,2.8,14.33-10.43-6.52-15.84-1.27,4.81,13.33,4.81,13.33-9.26-6.41-11.9-.21c-3.17,7.46,15.24,17.35,21.59,26,1.45,2,26.43,41.83,26.43,41.83Z" style="fill: rgb(235, 148, 129); transform-origin: 262.628px 184.723px;" id="eldmsfy14w7l5" class="animable"></path><path d="M227.5,168.33c13.52,7.31,18.17,12.84,25.58,26,.15.26.56.1.43-.18-6.08-13.58-10.91-21.36-25.69-26.52C227.1,167.41,226.86,168,227.5,168.33Z" style="fill: rgb(38, 50, 56); transform-origin: 240.332px 181.022px;" id="el0wo0adjehs7" class="animable"></path><path d="M238.48,156.27c13.38,8.81,18.47,14.77,27.25,28,.12.19.45,0,.34-.2-7.52-13.71-12.52-21.36-27-28.42C238.37,155.34,237.87,155.86,238.48,156.27Z" style="fill: rgb(38, 50, 56); transform-origin: 252.149px 169.952px;" id="elle8mha29w4s" class="animable"></path><path d="M251.63,144.37c12.33,9.47,18.2,15.77,25.07,29.71a.29.29,0,0,0,.53-.22C271.61,159,264.34,151.05,252,144,251.11,143.55,250.85,143.78,251.63,144.37Z" style="fill: rgb(38, 50, 56); transform-origin: 264.203px 158.992px;" id="el0q18ryua79d" class="animable"></path><path d="M262,247.79S246.44,236.47,240.7,230s-18.26-38.52-11.49-41.61c8.73-4,19.6,13.07,23.83,22.13,0,0,20.2-9.27,30.65,1.29S262,247.79,262,247.79Z" style="fill: rgb(235, 148, 129); transform-origin: 256.517px 217.791px;" id="els2o9svfdfp8" class="animable"></path><path d="M232,188.07c10.59,2.1,15.38,14.34,20.14,22.82a.89.89,0,0,0,1.45.21c8.72-3.32,22-5.46,30.13.1a.23.23,0,0,0,.29-.35c-7.92-7.15-21.13-6.11-30.46-1.86-4.74-8.77-10.08-20.84-21.54-21A.06.06,0,0,0,232,188.07Z" style="fill: rgb(38, 50, 56); transform-origin: 258.028px 199.687px;" id="eldmapepcxmx7" class="animable"></path><path d="M204.72,245.85c14.41,31,75.89,129.27,112.85,123.29,42.28-6.85-.74-163.46-10.31-174.5-5.16-6-57.45,34.36-52.13,47.08,2.18,5.21,12.16,21.76,10.77,22.25-1.18.41-16.86-18.25-43.55-37.71C196.76,207.6,198.28,232,204.72,245.85Z" style="fill: rgb(235, 148, 129); transform-origin: 268.28px 281.719px;" id="elb26y8dre4f9" class="animable"></path><path d="M204.07,247.65c16.91,38.35,77.2,116,99.8,120.83s27.28-2.1,33.32-24.7-15-117.2-15-117.2l-67,19.24L257.3,253s-17.78-14.63-33.49-27.3S190,215.77,204.07,247.65Z" style="fill: rgb(55, 180, 77); transform-origin: 268.644px 294.291px;" id="el1lym5i8yjbi" class="animable"></path><g id="el3zorpb2b6jo"><path d="M203.54,219.52v26.9c-.44-1-.84-2-1.21-3-.26-.68-.5-1.35-.73-2l-.06-.18V221l.27-.27A7.06,7.06,0,0,1,203.54,219.52Zm5.87-.78v39.72c.18.35.37.7.56,1.05V218.82C209.78,218.78,209.59,218.76,209.41,218.74Zm7.69,2.53c-.38-.2-.76-.38-1.14-.55l-.12-.06V270h.21c.39.66.8,1.33,1.22,2q.27.46.57.93V221.66C217.59,221.52,217.35,221.39,217.1,221.27Zm6.71,4.41-.1-.08v56.56l.55.83V226Zm6.33,5.12v60.85c.12.19.25.38.39.56s.25.38.39.56l1.21,1.73V232.41Zm7.87,6.4v65.46c.18.25.36.5.55.74V237.65C238.38,237.49,238.2,237.35,238,237.2Zm7.66,6.24-1.23-1v68.78c.44.58.88,1.16,1.34,1.73l.65.84V244.06Zm7.17,5.87-.53-.43v72.49h.14l.41.51V249.31Zm5.9-4.5v84.43H259c.58.69,1.17,1.38,1.76,2.06V244.24Zm7.87-2.26V338l.55.61v-96.2Zm6.43-1.84V344.9l2,2.05V240.13Zm7.87-2.26V352.73l.55.52v-115Zm6.43-1.85V358.48c.67.57,1.33,1.11,2,1.63V236Zm7.87,127.81.55.35V234.18l-.55.16Zm6.43-131.92V367.81a16.49,16.49,0,0,0,2,.61V231.92Zm7.87-2.26V369.49l.55.08V230.07Zm6.43,139.71c.69,0,1.35,0,2-.11v-142l-2,.58Zm8.21-134.37c0-.19-.08-.37-.11-.55-.08-.37-.16-.73-.23-1.08V368.31l.55-.27V236.57Zm8,42.34q-.49-3-1-5.87c-.11-.67-.23-1.34-.35-2-.2-1.11-.4-2.21-.59-3.3v95.65a30.07,30.07,0,0,0,2-3.68v-80.8Zm6.06,51.33c0-.65,0-1.32-.06-2s-.05-1.14-.08-1.73v12.2c0-.66.09-1.34.12-2,0-.18,0-.36,0-.55Q338.34,332.38,338.24,329.24ZM201.81,220.72l-.27.27a3.45,3.45,0,0,0-.26.28H217.1c-.38-.2-.76-.38-1.14-.55Zm-2.72,6.43a16,16,0,0,0-.06,2H228.1l-2.47-2Zm123.27,0h-2.11l-2.32.66-2,.58-2.62.75h9.47C322.6,228.25,322.45,227.58,322.36,227.15Zm-87,7.87H199.76l.12.55H236Zm88.7,0h-31.2l-1.92.55h33.23C324.11,235.38,324.07,235.2,324,235Zm-80.82,6.42H201.6c.23.65.47,1.32.73,2h43.34l-1.23-1Zm82.14,0H270.48l-3.32.95-.55.16-3.09.89h62.24C325.63,242.76,325.49,242.09,325.36,241.44Zm-72.5,7.87H204.81c.09.19.18.37.26.56h48.45l-.66-.54Zm74.08,0h-70.7l.16.56H327C327,249.68,327,249.5,326.94,249.31Zm1.25,6.43H208c.33.66.68,1.32,1,2H328.57C328.44,257.07,328.31,256.4,328.19,255.74Zm1.47,7.87H212.26l.32.56H329.76C329.73,264,329.69,263.8,329.66,263.61ZM216.05,270c.39.66.8,1.33,1.22,2h113.9c-.11-.67-.23-1.34-.35-2Zm116.18,8.19v-.32H221c.11.18.23.37.36.56h111A2,2,0,0,0,332.23,278.23Zm1,6.11H225.15c.45.66.89,1.33,1.35,2H333.55C333.45,285.68,333.34,285,333.23,284.34Zm1.22,7.87H230.53c.12.19.25.38.39.56H334.53C334.51,292.59,334.48,292.4,334.45,292.21Zm.92,6.43H238v2h97.63Zm1,7.87H240.86l.43.56h95.16C336.43,306.89,336.41,306.7,336.38,306.51Zm.72,6.43H245.78l.65.84c.29.39.59.78.9,1.16h90C337.24,314.28,337.18,313.61,337.1,312.94Zm.71,7.87H252l.32.39v.17h85.53Zm.37,6.43H257.29l1.45,1.73v.27h79.5C338.23,328.59,338.2,327.92,338.18,327.24Zm-74.13,7.87c.16.18.32.37.49.55h73.68c0-.18,0-.36,0-.55Zm5.82,6.43c.62.67,1.25,1.34,1.87,2h65.51a19.89,19.89,0,0,0,.41-2Zm7.61,7.87c.18.18.37.36.55.55h57.41c.06-.18.11-.36.16-.55Zm6.81,6.43c.78.69,1.54,1.36,2.29,2h46.05c.28-.64.55-1.3.81-2Zm9.87,7.87.82.55h33.9c.14-.17.29-.36.43-.55Z" style="opacity: 0.1; transform-origin: 268.651px 294.34px;" class="animable"></path></g><path d="M322.66,243.81c-4.28,1.75-8.67,3.15-13.07,4.54-7.75,2.45-15.57,4.65-23.38,6.85-3.95,1.11-7.92,2.11-11.9,3.1S266.36,260,262.44,261c-.09,0-.13-.11,0-.14,2.24-.58,4.44-1.35,6.65-2.05s4.35-1.37,6.54-2c7.78-2.33,15.59-4.54,23.38-6.85,3.93-1.16,7.87-2.28,11.81-3.41s7.82-2.21,11.79-3.08A.18.18,0,0,1,322.66,243.81ZM294.27,350c-3.32-6-6.34-12.05-9.31-18.18s-5.66-12.25-8.24-18.46a352.42,352.42,0,0,1-13.44-38.25c-1-3.63-2-7.28-3-10.93s-1.82-7.47-2.72-11.22c-.13-.54-.37-.54-.28,0,1.13,6.7,2.12,13.65,3.85,20.21s3.7,13.09,5.88,19.53,4.6,12.8,7.24,19.06,5.42,12.46,8.59,18.46c3.57,6.74,7.31,13.36,11.28,19.88C294.19,350.21,294.32,350.12,294.27,350Z" style="fill: rgb(38, 50, 56); transform-origin: 290.011px 296.81px;" id="elhfw1adfc6f" class="animable"></path><g id="el9aqu4tj7xd4"><path d="M309.21,369.45c-1.66-.23-3.44-.56-5.34-1C281.27,363.6,221,286,204.07,247.65c-7.74-17.56-5.73-26.29.26-28.46C222.32,245.79,280.38,328.47,309.21,369.45Z" style="opacity: 0.1; transform-origin: 254.113px 294.32px;" class="animable"></path></g><path d="M248.18,370.11,102,370.5s16.6-108.33,70.31-159.91c6.64-6.38,22.22-5.62,32.56-1,3.69,1.65,17.42,19.29,21.83,36.32S248.57,369.58,248.18,370.11Z" style="fill: rgb(55, 180, 77); transform-origin: 175.093px 288.232px;" id="elwd5tioet7r" class="animable"></path><g id="el07muhm22lblk"><path d="M103.44,362.33v8.17H102l.06-.36c.12-.78.46-2.81,1-5.88,0-.18.07-.36.1-.55Q103.31,363,103.44,362.33Zm5.88-27.22v35.37h.55V334.24c-.08.29-.15.58-.23.87Zm6.43-22.17v57.52h2V307.59c-.59,1.8-1.17,3.59-1.73,5.35Zm7.87-21.9v79.4h.55V289.59Zm7.87-19c-.49,1.09-1,2.19-1.45,3.28v95.11h2V270.85C131.86,271.24,131.68,271.64,131.49,272Zm6.94-14.3c-.17.33-.34.67-.52,1V370.4h.56V257.67Zm5.91-10.69V370.39h2V243.7C145.66,244.81,145,245.93,144.34,247.05Zm7.87,123.32h.56V233.8l-.56.82Zm6.43-144.56V370.35h2v-147C160,224.13,159.3,225,158.64,225.81Zm7.87-9.31V370.33h.56V215.89Zm6.43-6.49v160.3h2V208.66A12.74,12.74,0,0,0,172.94,210Zm7.87-3.59V370.29h.56V206.42Zm6.43-.46V370.27h2V206C188.57,206,187.9,206,187.24,206Zm7.87.71V370.25h.56V206.77Zm6.43,1.64V370.23h2V209C202.89,208.78,202.22,208.54,201.54,208.31Zm7.87,5.51V370.21H210V214.48Zm6.43,8.7V370.2h2V225.74C217.18,224.63,216.51,223.55,215.84,222.52Zm7.87,14.76v132.9h.55V238.63C224.09,238.18,223.9,237.73,223.71,237.28ZM231.87,272c-.12-.67-.25-1.34-.37-2q-.56-3.06-1.08-5.87c0-.19-.07-.37-.11-.56s-.11-.61-.17-.92V370.16h2V273.49C232,273,232,272.52,231.87,272ZM238,307.11v63h.55V310.33C238.38,309.26,238.19,308.18,238,307.11Zm8.38,50.72c-.1-.64-.21-1.3-.31-2-.3-1.82-.61-3.79-1-5.88l-.09-.55c-.19-1.21-.39-2.45-.6-3.73v24.46h2V357.83ZM193.57,206.42H180.81v.16c-.56.11-1.11.24-1.64.39h17.48l-1-.2-.56-.1Zm16.4,8.06-.56-.66c-.3-.34-.58-.67-.86-1H170c-.65.65-1.29,1.31-1.93,2h42.2Zm4.68,6.24H162.79c-.16.18-.32.36-.47.55H215C214.89,221.09,214.77,220.9,214.65,220.72Zm4,6.43H157.61c-.5.65-1,1.32-1.5,2h63.68C219.42,228.46,219.05,227.8,218.67,227.15ZM151.93,235c-.12.18-.25.36-.37.55H223l-.24-.55Zm73.38,6.42H147.74c-.42.66-.83,1.33-1.24,2H226C225.76,242.77,225.54,242.1,225.31,241.44Zm2.15,7.87H143c-.11.18-.21.37-.32.56h84.88C227.55,249.68,227.51,249.49,227.46,249.31Zm1.34,6.43H139.48l-1,1.93,0,.07h90.76C229.06,257.05,228.93,256.38,228.8,255.74Zm1.51,7.87H135.47l-.28.56h95.23C230.38,264,230.35,263.8,230.31,263.61ZM231.5,270H132.41l-.37.81c-.18.39-.36.79-.55,1.19H231.87C231.75,271.37,231.62,270.7,231.5,270Zm1.43,7.87h-104l-.24.56H233C233,278.28,233,278.09,232.93,277.91Zm1.14,6.43H126.25l-.81,2h109C234.3,285.67,234.19,285,234.07,284.34Zm1.37,7.87H123.17l-.21.56H235.54C235.51,292.58,235.48,292.39,235.44,292.21Zm1.12,6.43H120.81c-.23.67-.47,1.34-.7,2H236.9C236.79,300,236.67,299.31,236.56,298.64Zm1.35,7.87H118.1l-.18.56H238Zm1.09,6.43H115.75v.85l-.36,1.15h124C239.23,314.28,239.11,313.61,239,312.94Zm1.32,7.87H113.61c0,.19-.11.38-.16.56h127C240.39,321.19,240.36,321,240.32,320.81Zm1.08,6.43H111.76c-.18.67-.37,1.34-.55,2H241.73Zm1.31,7.87H109.32v.55H242.8Zm1,6.43H108c-.17.68-.33,1.34-.49,2H244.09Zm1.28,7.87H106.16L106,350H245.13Zm1,6.43H104.75l-.41,2h142C246.29,357.19,246.18,356.53,246.08,355.84Zm1.22,7.87H103.17c0,.19-.06.37-.1.55H247.39C247.36,364.08,247.34,363.9,247.3,363.71ZM102,370.14l-.06.36h1.46l5.88,0h.55l5.88,0h2l5.88,0H132l5.87,0h29.16l5.87,0h2l5.87,0h.56l5.87,0h2l5.87,0h.56l5.87,0h2l5.87,0H102Z" style="opacity: 0.1; transform-origin: 174.665px 288.23px;" class="animable"></path></g><path d="M228.22,253c1.29,3.79,2.4,7.73,3.33,11.7,0-.16,0-.31,0-.47,0-2.24-.11-4.54,0-6.78,0-.12.2-.16.22,0a34.63,34.63,0,0,1,.47,6.82c0,1.07,0,2.15-.09,3.22.38,1.78.73,3.57,1,5.34.57,3.37,3.85,25.75,4,28.26,0,.53-.27.54-.44,0-.79-2.51-5-25.16-5.76-28.49A181.74,181.74,0,0,1,228,253C228,252.85,228.17,252.84,228.22,253Z" style="fill: rgb(38, 50, 56); transform-origin: 232.575px 277.188px;" id="el0eata65mypnt" class="animable"></path><path d="M202.42,243.92c-8.95.52-21.39-15.2-25.35-26.86-.27-.8,2.2-8.3,4.77-17.55,1.54-5.61,3.12-11.91,4.14-17.75l35.1,15.34s-5.75,11.62-7.48,21.82a14,14,0,0,0-.17,2.45c0,.11,0,.25,0,.4C213.36,226.46,211.07,243.41,202.42,243.92Z" style="fill: rgb(235, 148, 129); transform-origin: 199.065px 212.846px;" id="elmo7w7uar16" class="animable"></path><path d="M213.43,221.36c0,.12,0,.26,0,.41a23.9,23.9,0,0,1-3.8-.46c-20.7-4.11-22-30.55-21.92-38.8l33.39,14.59s-5.75,11.63-7.48,21.83A12.8,12.8,0,0,0,213.43,221.36Z" style="fill: rgb(38, 50, 56); transform-origin: 204.403px 202.14px;" id="elwkywm6uduxc" class="animable"></path><path d="M245.24,143.14s8.95,8.25,6.95,19.68-8.57,21.78-9.7,22S245.24,143.14,245.24,143.14Z" style="fill: rgb(38, 50, 56); transform-origin: 247.383px 163.98px;" id="el6v2xghwls85" class="animable"></path><path d="M193.37,138.57c-7.68,11.46-12.07,50-5.55,60.83,9.45,15.74,30.44,23.33,45.2,10.71,14.31-12.24,19.14-62.53,11.34-73C232.88,121.78,204.71,121.63,193.37,138.57Z" style="fill: rgb(235, 148, 129); transform-origin: 216.363px 171.092px;" id="el3kk8omm43ow" class="animable"></path><path d="M188.85,204.11s0,0,0,0" style="fill: none; stroke: rgb(245, 167, 158); stroke-linecap: round; stroke-linejoin: round; stroke-width: 0px; transform-origin: 188.85px 204.11px;" id="eldiz3a5wbind" class="animable"></path><path d="M216,162.77c1.11-.41,2.2-.61,3.34-.91s2.27-.74,3.58-.28a1.78,1.78,0,0,1,1,1.93c-.4,1.64-1.87,2.45-3.4,2.91a6.51,6.51,0,0,1-4.68-.17A1.91,1.91,0,0,1,216,162.77Z" style="fill: rgb(38, 50, 56); transform-origin: 219.371px 164.078px;" id="el2tf8xt4n717" class="animable"></path><path d="M245,169.51c-.82-.85-1.72-1.5-2.61-2.27s-1.73-1.64-3.11-1.8a1.79,1.79,0,0,0-1.73,1.32c-.35,1.65.63,3,1.8,4.09a6.53,6.53,0,0,0,4.3,1.87A1.91,1.91,0,0,0,245,169.51Z" style="fill: rgb(38, 50, 56); transform-origin: 241.495px 169.08px;" id="el2cyw2wnh3j4" class="animable"></path><path d="M215.11,195.55c.52.71,1,1.64,1.93,1.86a6.82,6.82,0,0,0,2.87-.21.09.09,0,0,1,.09.15,3.49,3.49,0,0,1-3.49.88,2.76,2.76,0,0,1-1.67-2.6C214.82,195.48,215,195.45,215.11,195.55Z" style="fill: rgb(38, 50, 56); transform-origin: 217.433px 196.936px;" id="el9yy0j4wvqb" class="animable"></path><path d="M229.76,187.7s-.55,4.61-1,6.44c0,.17-5.76-2.56-10.8-3.26-.22,0-.32-.48.29-.56,3.5-.42,9.52,1.94,9.52,1.94.07-.29.47-6.88.77-6.83a16.62,16.62,0,0,1,3.92,1.95c1.09-8.32.85-16.74,2.06-25a.26.26,0,0,1,.51,0c.88,8.81-.17,18.41-1.08,27C233.85,190.48,230.42,188.19,229.76,187.7Z" style="fill: rgb(38, 50, 56); transform-origin: 226.576px 178.159px;" id="eltx3diqzux6" class="animable"></path><path d="M222.25,173.85c0-.1-.22.09-.23.19-.37,2.61-1.22,5.54-3.71,6-.08,0-.09.14,0,.14C221.24,180.27,222.33,176.38,222.25,173.85Z" style="fill: rgb(38, 50, 56); transform-origin: 220.25px 177.002px;" id="elo3cloawqo4" class="animable"></path><path d="M216.28,173.32a9.79,9.79,0,0,0,.73,3.29,2.12,2.12,0,0,0,2.21,1.34c.86-.1,1.55-1,2-2a14.65,14.65,0,0,0,1.06-3.26,7.32,7.32,0,0,1-.22,3.59,5.1,5.1,0,0,1-.89,1.71,3,3,0,0,1-1.81,1.07,2.9,2.9,0,0,1-2-.49,3.08,3.08,0,0,1-1.17-1.66A6,6,0,0,1,216.28,173.32Z" style="fill: rgb(38, 50, 56); transform-origin: 219.183px 175.886px;" id="elikhycyr3y6" class="animable"></path><path d="M236.43,175.71c0-.09.18.15.17.26-.43,2.6-.49,5.64,1.76,6.82.07,0,0,.17,0,.14C235.49,182.15,235.6,178.1,236.43,175.71Z" style="fill: rgb(38, 50, 56); transform-origin: 237.155px 179.312px;" id="elv342tue8wds" class="animable"></path><path d="M242.28,177a5.92,5.92,0,0,1-1,3.49,3.11,3.11,0,0,1-1.61,1.24,2.8,2.8,0,0,1-3.52-1.71,5.23,5.23,0,0,1-.34-1.88,7.34,7.34,0,0,1,.86-3.5,14.52,14.52,0,0,0,0,3.43,3.15,3.15,0,0,0,1.35,2.47,2.12,2.12,0,0,0,2.52-.61A9.69,9.69,0,0,0,242.28,177Z" style="fill: rgb(38, 50, 56); transform-origin: 239.046px 178.257px;" id="elouend1v9qu9" class="animable"></path><path d="M190.79,169.82c7.09,1.73,13.94-29.82,13.94-29.82s6.4,5.17,12.25,7.05a64.59,64.59,0,0,0,14.08,2.68c1.06,0-10.11-7.87-10.11-7.87s29.51,13.32,32.55,8c1.06-1.88-7.88-26.5-29.61-30.23-16-2.75-28.79,11.38-28.79,11.38s-9.67,6.64-10.53,11.69C183.43,149.43,183.28,168,190.79,169.82Z" style="fill: rgb(38, 50, 56); transform-origin: 218.787px 144.582px;" id="elgtqi8pzn6h9" class="animable"></path><path d="M192.79,170.85s-5-14.2-11.18-12.75-4.82,20.4.85,24.53a6.67,6.67,0,0,0,9.58-1Z" style="fill: rgb(235, 148, 129); transform-origin: 185.171px 171.103px;" id="els159hxcznao" class="animable"></path><path d="M182.15,163.52c-.1,0-.16.1-.09.16,3.93,3,5.11,7.81,5.55,12.53-.86-2-2.4-3.41-5-2.46-.14.05-.08.26.05.27a4.11,4.11,0,0,1,4,2.6,19.47,19.47,0,0,1,1.09,4.11c.1.46.87.44.85,0a.49.49,0,0,0,0-.12C190.23,174.94,188.06,165.79,182.15,163.52Z" style="fill: rgb(38, 50, 56); transform-origin: 185.577px 172.294px;" id="elx6rcab9eda" class="animable"></path><path d="M246.7,176.5c-1.31,5.31-2.54,10.65-4.07,15.91a47.54,47.54,0,0,1-6,13.31,24.61,24.61,0,0,1-2.44,3c-.91,1-3.11,2.92-3,2.86.89-.72,1.88-1.3,2.76-2a22.87,22.87,0,0,0,2.49-2.43,28.54,28.54,0,0,0,4-5.79c2.48-4.78,3.72-10.13,4.77-15.38.62-3.14,1.15-6.31,1.73-9.47A.06.06,0,0,0,246.7,176.5Z" style="fill: rgb(38, 50, 56); transform-origin: 239.063px 193.983px;" id="eldw9hb1cf5ag" class="animable"></path><path d="M213.7,219.19l-9.43,21.49-26.17-28.4-7.95,8.6s25.07,44.59,25.3,42.62L205,245l12.54,13.47V225.68Z" style="fill: rgb(55, 180, 77); transform-origin: 193.845px 237.922px;" id="eljae8f93them" class="animable"></path><path d="M218.46,242.27c-.18-5.41-.22-10.87-.65-16.27,0-.2-.31-.29-.37-.07-1.24,5.19-.43,25.89-.61,30.85l-.06-.06c-.52-.58-11.64-11.87-11.76-11.7-2,2.92-9,16.37-9.54,17.6-4-7.08-20.85-35-25.6-41.77a.19.19,0,0,0-.33.17c3.47,7.46,25.26,44.35,25.59,44.26.22.18,8.93-16.39,10-19.54,1.86,2.44,13,15.13,13.11,14.33A173.25,173.25,0,0,0,218.46,242.27Z" style="fill: rgb(38, 50, 56); transform-origin: 194.063px 243.031px;" id="elq3lf3hqyjck" class="animable"></path><path d="M108.17,368.14c-10.75,6.34-27.8,3-29.48-11.9-5.61-50,35-150.44,42.17-158.93,5.16-6.05,53.84,26.91,51.54,35.09C168.7,245.6,132.1,354.05,108.17,368.14Z" style="fill: rgb(235, 148, 129); transform-origin: 125.319px 283.882px;" id="el2m5tv65svgw" class="animable"></path><path d="M118.2,204s5.6-24.08,12.46-35.81c9.18-15.72,23.58-25.51,29.86-29.25,13.11-7.8,50.2-17.6,54.89-7.41,4.24,9.23-34.18,17.33-34.18,17.33s37.81-14.72,40.88-2.68S180,165.11,180,165.11s39.19-14.26,40.38-1.34c.91,9.77-39.63,18.29-39.63,18.29s33.77-12,35.14-2c1.5,11-35.42,21.26-35.42,21.26-.82,26-11.85,38.07-20.71,45.71C157.65,248.86,118.2,204,118.2,204Z" style="fill: rgb(235, 148, 129); transform-origin: 170.23px 187.123px;" id="el1xt3kk526fk" class="animable"></path><path d="M208.27,158.32c2.16-.78,15.38-3.94,14.42-11.76-.7-5.77-7.34-5.07-9.58-5.06l.31,0c.47,0-7.08-.19-18.49,2.43-4.65,1.07-9.24,2.4-13.77,3.9s-9,3.44-13.33,5.33c-.11,0-.07.21,0,.17,4.52-1.49,9.12-2.75,13.64-4.24s20.06-6.35,31.09-7.51a15.21,15.21,0,0,1,6.12,1.15,5.32,5.32,0,0,1,3.15,4.13c.35,4.16-4.07,6.65-7.18,8.33a46.09,46.09,0,0,1-6.53,3,.08.08,0,0,0,0,.13l-.67,0h0a.83.83,0,0,0-.2,0c-5.89,1.51-11.52,2.82-17.29,4.73s-11.37,4.29-17.06,6.46c-.09,0-.05.17,0,.14,5.7-2,11.59-3.61,17.37-5.41s11-3.88,16.85-5.62a.59.59,0,0,0,.37-.23,30.61,30.61,0,0,1,7.46.65c2.18.52,4.21,1.82,4.78,4.13.61,2.46-1.46,4.39-3.2,5.74a31.15,31.15,0,0,1-6,3.51c-1.32.63-2.68,1.19-4,1.75s-3.78,1.67-5.19,2.16c-.1,0,0,.1.12.07,17.28-4.19,20.07-10,19.57-13.25C220.16,157.21,211,158.15,208.27,158.32Z" style="fill: rgb(38, 50, 56); transform-origin: 195.251px 158.937px;" id="eljysel78jujl" class="animable"></path><path d="M174.76,184.51a134.69,134.69,0,0,1,26.62-8.08c.46-.1.3.25-.15.38-9,2.45-15.81,4.51-26.34,8C174.73,184.86,174.58,184.59,174.76,184.51Z" style="fill: rgb(38, 50, 56); transform-origin: 188.167px 180.614px;" id="elebg60xwypg5" class="animable"></path><path d="M215.13,177.13c-3.41-2.85-11.21-1.15-13.71-.72-.13,0-.1.27,0,.25a34.93,34.93,0,0,1,6.54-.38,15.48,15.48,0,0,1,5.52,1,3.84,3.84,0,0,1,1.8,1.48,3.71,3.71,0,0,1,.24,2.92,9.91,9.91,0,0,1-3,4.57c-8.59,7.91-32.12,14.9-32.18,14.92s-.43,6.64-.79,9.63c-.18,1.45-.41,2.89-.68,4.32a26.25,26.25,0,0,1-1,4.46c0,.09.12.14.15,0,.45-1.47,1.06-2.88,1.5-4.35a40.68,40.68,0,0,0,1.06-4.46,64.45,64.45,0,0,0,.51-9.24C222.26,190.63,218.17,179.68,215.13,177.13Z" style="fill: rgb(38, 50, 56); transform-origin: 197.392px 197.591px;" id="el2iyptex9r4w" class="animable"></path><path d="M113.53,199.09l61.15,41.8s-46.21,126.87-72,130.69c-11.8,1.74-18.46-1.83-23.19-10S68.64,311.39,113.53,199.09Z" style="fill: rgb(55, 180, 77); transform-origin: 125.458px 285.55px;" id="elarkioseu40a" class="animable"></path><g id="elynszhhn7yu"><path d="M125.06,207H110.42c.07-.18.14-.37.22-.55h13.61Zm10.45,7.14-1.85-1.26H108.15c-.26.67-.51,1.33-.76,2h29.18Zm9.66,6.61H104.92v.55H146Zm11.07,7.57-.56-.39-1.1-.75H102.82l-.72,2h55.39Zm9.85,6.73H100c-.07.18-.13.37-.19.55H166.9ZM97.8,241.44c-.23.67-.46,1.34-.68,2h76.62l.74-2Zm-2.62,7.87c-.07.19-.13.38-.19.56H171.3c.08-.19.15-.38.22-.56Zm-2.07,6.43c-.17.53-.33,1.05-.5,1.57,0,.14-.09.29-.14.43h75.78l.79-2Zm-2.43,7.87-.06.21c0,.12-.07.23-.1.35h75.19c.07-.19.15-.38.22-.56ZM88.8,270c-.2.67-.39,1.34-.57,2h74.29l.82-2Zm-2.19,7.87c-.06.19-.11.38-.15.56h73.4l.23-.56Zm-1.69,6.43-.18.71c-.11.44-.21.86-.32,1.29h72.11c.29-.67.57-1.34.85-2ZM83,292.21c-.05.19-.09.38-.13.56h70.86c.08-.18.17-.37.24-.56Zm-1.43,6.43c-.15.67-.29,1.34-.43,2h69.1l.89-2ZM80,306.51c0,.19-.07.38-.11.56H147.3c.09-.19.18-.37.26-.56Zm-1.14,6.43c-.11.68-.21,1.34-.31,2h65c.33-.66.65-1.33,1-2Zm-1.16,7.87c0,.19,0,.37-.07.56h62.82l.28-.56ZM77,327.24c-.06.68-.13,1.35-.19,2h59.67l1-2Zm-.59,7.87c0,.19,0,.37,0,.55H133l.3-.55Zm-.16,6.43c0,.68,0,1.34,0,2H128.5c.39-.66.78-1.32,1.16-2Zm.33,7.87c0,.19,0,.37,0,.55h48l.35-.55Zm.94,6.43c.16.72.32,1.38.49,2h41.26v-.19q.66-.88,1.32-1.8Zm3.33,7.87c.12.19.26.37.39.55h32.54l.51-.55Zm7.27,6.43a17.74,17.74,0,0,0,2.55,1,20,20,0,0,0,2,.48,25.61,25.61,0,0,0,5.88.37,5.07,5.07,0,0,0,.55,0c1.14-.06,2.34-.18,3.6-.37a10.27,10.27,0,0,0,2.28-.63,14.37,14.37,0,0,0,1.69-.81ZM77.69,320.81c0,.19,0,.37-.07.56q-.39,3.06-.67,5.87c-.06.68-.13,1.35-.19,2-.17,2.07-.31,4-.4,5.87,0,.19,0,.37,0,.55h0V346.3c.05,1.1.13,2.14.21,3.11,0,.19,0,.37,0,.55a55.08,55.08,0,0,0,.89,5.88c.16.72.32,1.38.49,2,.12.4.23.78.35,1.13V316.41C78.08,317.92,77.88,319.39,77.69,320.81Zm6.73-34.47c-.08.31-.15.62-.23.93v80.29c.18.17.36.32.55.47v-83C84.63,285.49,84.53,285.91,84.42,286.34Zm8-28.6q-.91,3-1.79,5.87l-.06.21V371.13a20,20,0,0,0,2,.48V257.31C92.57,257.45,92.52,257.6,92.47,257.74Zm6-18.31V372a5.07,5.07,0,0,0,.55,0V237.83C98.85,238.37,98.67,238.9,98.49,239.43Zm6.69-18.71h-.26V371a14.37,14.37,0,0,0,1.69-.81h.3v-154C106.32,217.66,105.75,219.2,105.18,220.72ZM112.79,201V365.23l.55-.56V200.54H113Zm6.43,2V357.64q.66-.88,1.32-1.8c.22-.31.45-.62.67-.94V204.34Zm7.87,5.38V345.88l.55-.91V208.74Zm6.42,4.39v122c.67-1.22,1.33-2.46,2-3.71V214.11l-1.85-1.26Zm7.87,5.38V319.49c.18-.38.37-.76.56-1.14V218.51Zm6.43,4.39V306q1-2.18,2-4.36V223.89Zm7.87,5.38v60.41l.56-1.29V228.29Zm6.43,4.4V273c.14-.34.27-.67.41-1l.82-2c.26-.64.51-1.27.77-1.89V233.66Zm7.87,21,.56-1.46v-13.8l-.56-.38Z" style="opacity: 0.1; transform-origin: 125.365px 286.283px;" class="animable"></path></g><path d="M175.9,241c0,.05-1.06,2.57-1.54,3.78-3.83,9.83-8,19.52-12.22,29.19s-8.46,19.27-12.88,28.83-8.9,19.09-13.51,28.56c-3.77,7.73-7.69,15.41-12.66,22.45a69.09,69.09,0,0,1-8.21,9.62,58,58,0,0,1-10,7.52.08.08,0,0,1-.08-.14,28.64,28.64,0,0,0,2.67-1.83,74.66,74.66,0,0,0,16.26-19A240.82,240.82,0,0,0,136,326.66q6.82-14.16,13.33-28.48c4.34-9.54,8.66-19.09,12.84-28.69s8.2-19.11,12.34-28.64c-.19-.11-3.26-2.23-4-2.78-.06,0,0-.17.06-.14C171.45,238.17,176,240.73,175.9,241Zm-9,8.91c-3.4-2.62-7-5-10.53-7.44s-7.2-4.84-10.82-7.22c-7.18-4.71-14.29-9.52-21.48-14.22-2-1.32-4.06-2.61-6.1-3.89s-4.19-2.56-6.19-4a.08.08,0,0,0-.09.14c3.54,2.44,6.83,5.24,10.32,7.76s7,5.08,10.62,7.52c7.11,4.82,14.22,9.64,21.49,14.22,4.12,2.61,8.25,5.19,12.57,7.44A.2.2,0,0,0,166.89,249.88Z" style="fill: rgb(38, 50, 56); transform-origin: 140.331px 292.044px;" id="el2x293xcdhmk" class="animable"></path></g><g id="freepik--Papers--inject-75" class="animable" style="transform-origin: 268.645px 414.445px;"><polygon points="339.75 396.81 369.92 378.99 408.25 391.82 376.78 410.95 339.75 396.81" style="fill: rgb(255, 255, 255); transform-origin: 374px 394.97px;" id="elno35z9noyp" class="animable"></polygon><path d="M375.58,406c1.85-1.37,3.77-2.65,5.69-3.91s3.87-2.47,5.82-3.67,3.94-2.37,6-3.48l3-1.67c1-.53,2-1.08,3.07-1.58-.93.69-1.88,1.33-2.82,2l-2.87,1.91c-1.92,1.27-3.87,2.48-5.83,3.68s-3.94,2.36-5.95,3.48S377.65,405,375.58,406Z" style="fill: rgb(219, 219, 219); transform-origin: 387.37px 398.845px;" id="ela73zen5jub" class="animable"></path><path d="M380.56,398.75a59.82,59.82,0,0,1,6.75-4.69,59.22,59.22,0,0,1,7.27-3.83,59.82,59.82,0,0,1-6.75,4.69A61.31,61.31,0,0,1,380.56,398.75Z" style="fill: rgb(219, 219, 219); transform-origin: 387.57px 394.49px;" id="el5h5qqy18wzn" class="animable"></path><path d="M366.49,403.09c1.85-1.37,3.77-2.64,5.69-3.9s3.87-2.48,5.82-3.68,3.94-2.37,5.95-3.48l3-1.67c1-.53,2-1.08,3.07-1.58-.92.69-1.88,1.33-2.82,2l-2.87,1.91c-1.92,1.27-3.87,2.47-5.83,3.67s-3.94,2.37-5.95,3.48S368.56,402.08,366.49,403.09Z" style="fill: rgb(219, 219, 219); transform-origin: 378.255px 395.935px;" id="eldfiztpcun4t" class="animable"></path><path d="M365.33,399.59c3.15-2.38,6.47-4.5,9.82-6.56s6.78-4,10.34-5.7c-3.15,2.38-6.47,4.5-9.82,6.56S368.89,397.88,365.33,399.59Z" style="fill: rgb(219, 219, 219); transform-origin: 375.41px 393.46px;" id="ellrqlshppgw" class="animable"></path><path d="M369.27,393a47.53,47.53,0,0,1,11.68-7.1,40.77,40.77,0,0,1-5.58,4A41.22,41.22,0,0,1,369.27,393Z" style="fill: rgb(219, 219, 219); transform-origin: 375.11px 389.45px;" id="elhw3tur1pzaj" class="animable"></path><polygon points="288.88 413.59 336.55 394.97 382.54 422.7 335.12 441.98 288.88 413.59" style="fill: rgb(255, 255, 255); transform-origin: 335.71px 418.475px;" id="el6pcgxvfog6s" class="animable"></polygon><path d="M334.45,436.33c3.1-1.48,6.25-2.86,9.4-4.23s6.33-2.69,9.5-4,6.38-2.57,9.59-3.78l4.83-1.81c1.62-.57,3.23-1.17,4.87-1.71-1.55.75-3.13,1.44-4.69,2.17l-4.72,2.07c-3.15,1.37-6.32,2.68-9.5,4s-6.38,2.57-9.59,3.78S337.71,435.23,334.45,436.33Z" style="fill: rgb(219, 219, 219); transform-origin: 353.545px 428.565px;" id="eltpo4vcd7vp" class="animable"></path><path d="M346.66,426.46c3.4-1.8,6.91-3.33,10.45-4.79s7.13-2.78,10.83-3.86a114.31,114.31,0,0,1-10.45,4.79C353.94,424,350.36,425.38,346.66,426.46Z" style="fill: rgb(219, 219, 219); transform-origin: 357.3px 422.135px;" id="elvp47tr028k" class="animable"></path><path d="M329.75,428.43c2.71-1.32,5.47-2.55,8.23-3.76s5.54-2.36,8.33-3.51,5.59-2.25,8.41-3.3l4.24-1.57c1.43-.49,2.84-1,4.28-1.47-1.35.67-2.73,1.28-4.09,1.92L355,418.58c-2.76,1.21-5.54,2.36-8.33,3.51s-5.59,2.24-8.41,3.29S332.62,427.49,329.75,428.43Z" style="fill: rgb(219, 219, 219); transform-origin: 346.495px 421.625px;" id="elotk28n8483" class="animable"></path><path d="M327.53,424.43c2.51-1.24,5.05-2.38,7.61-3.51s5.13-2.2,7.71-3.26,5.18-2.08,7.79-3.05l3.93-1.44c1.33-.45,2.64-.93,4-1.35-1.25.63-2.52,1.2-3.78,1.8l-3.83,1.71c-2.55,1.13-5.13,2.2-7.71,3.26s-5.17,2.07-7.79,3S330.19,423.57,327.53,424.43Z" style="fill: rgb(219, 219, 219); transform-origin: 343.05px 418.125px;" id="elf62v9kam6m" class="animable"></path><path d="M315.65,424.35c3.11-1.49,6.26-2.87,9.41-4.24s6.32-2.68,9.5-4,6.37-2.56,9.59-3.77l4.83-1.81c1.62-.57,3.23-1.18,4.86-1.72-1.55.75-3.12,1.45-4.68,2.17l-4.72,2.07c-3.15,1.38-6.32,2.68-9.5,4s-6.38,2.56-9.59,3.77S318.92,423.25,315.65,424.35Z" style="fill: rgb(219, 219, 219); transform-origin: 334.745px 416.58px;" id="elu6pthv7gh2h" class="animable"></path><path d="M315.26,419.6c2.75-1.34,5.53-2.57,8.33-3.8s5.61-2.39,8.43-3.55,5.65-2.27,8.51-3.34l4.29-1.59c1.44-.5,2.87-1,4.33-1.49-1.37.68-2.77,1.29-4.15,1.95l-4.18,1.85c-2.79,1.23-5.61,2.39-8.43,3.55s-5.66,2.27-8.51,3.33S318.16,418.65,315.26,419.6Z" style="fill: rgb(219, 219, 219); transform-origin: 332.205px 412.715px;" id="elhfqn527t098" class="animable"></path><path d="M306.26,418.36c3.1-1.49,6.25-2.87,9.4-4.24s6.33-2.68,9.51-4,6.37-2.57,9.59-3.77l4.82-1.82c1.62-.57,3.23-1.17,4.87-1.71-1.55.75-3.12,1.44-4.68,2.17l-4.72,2.07c-3.15,1.38-6.33,2.68-9.51,4s-6.37,2.56-9.59,3.77S309.52,417.25,306.26,418.36Z" style="fill: rgb(219, 219, 219); transform-origin: 325.355px 410.59px;" id="elhwir2ttx6bg" class="animable"></path><path d="M317.18,409c3.61-1.89,7.34-3.51,11.1-5.05s7.56-3,11.47-4.13c-3.61,1.9-7.34,3.51-11.1,5.05S321.09,407.84,317.18,409Z" style="fill: rgb(219, 219, 219); transform-origin: 328.465px 404.41px;" id="elyd11l6x3zw9" class="animable"></path><polygon points="129.04 399.11 269.31 380.74 328.11 422.66 189.72 449.9 129.04 399.11" style="fill: rgb(69, 90, 100); transform-origin: 228.575px 415.32px;" id="el67v8d3zvzlv" class="animable"></polygon><path d="M137.54,399.58l55.53,46.64,129.69-25.44-56.88-40.22s-37.86.13-39.66.45-19.09,5-19.09,5-23.55,1.06-25.18,1.39S137.54,399.58,137.54,399.58Z" style="fill: rgb(255, 255, 255); transform-origin: 230.15px 413.39px;" id="elqryuc77njpg" class="animable"></path><polygon points="207.13 386.04 213.9 391.78 220.63 397.57 233.99 409.25 247.24 421.06 253.82 427.01 260.36 433.02 253.58 427.29 246.86 421.49 233.5 409.81 220.25 398 213.66 392.05 207.13 386.04" style="fill: rgb(219, 219, 219); transform-origin: 233.745px 409.53px;" id="el9th822yq4eo" class="animable"></polygon><path d="M215.05,415.87c1.64-.31,3.29-.54,4.94-.76s3.31-.4,5-.57,3.32-.3,5-.39,3.33-.18,5-.19c-1.64.32-3.29.55-4.94.77s-3.3.39-5,.56-3.31.3-5,.39S216.74,415.86,215.05,415.87Z" style="fill: rgb(219, 219, 219); transform-origin: 225.02px 414.915px;" id="elga3dezof11k" class="animable"></path><path d="M185.23,428.51c4.35-1.42,8.72-2.77,13.09-4.1s8.78-2.6,13.17-3.88c2.2-.65,4.4-1.24,6.63-1.81a9.69,9.69,0,0,1,1.74-.28l1.71-.18L225,418c4.56-.36,9.12-.71,13.69-.95-4.54.58-9.09,1.06-13.63,1.57l-3.41.36a23.92,23.92,0,0,0-3.35.47c-2.2.57-4.39,1.23-6.6,1.83l-13.21,3.7C194.07,426.16,189.66,427.37,185.23,428.51Z" style="fill: rgb(219, 219, 219); transform-origin: 211.96px 422.78px;" id="elsnx0dp811u" class="animable"></path><path d="M189.11,431.84c4.22-1.42,8.45-2.78,12.7-4.11s8.51-2.6,12.77-3.88q3.19-1,6.42-1.83c.54-.15,1.07-.3,1.65-.42s1.12-.14,1.68-.2l3.32-.32c4.44-.36,8.87-.69,13.32-.91-4.42.58-8.84,1.05-13.26,1.55l-3.31.35c-.55.07-1.11.12-1.63.22s-1.05.27-1.58.41l-6.41,1.84c-4.28,1.22-8.53,2.51-12.82,3.71S193.41,430.68,189.11,431.84Z" style="fill: rgb(219, 219, 219); transform-origin: 215.04px 426.005px;" id="elwpeei2mj1j" class="animable"></path><path d="M193,434.68c4.28-1.26,8.57-2.45,12.87-3.61s8.62-2.27,12.93-3.39c2.17-.55,4.3-1.11,6.54-1.55l6.61-1c4.42-.6,8.83-1.21,13.26-1.71-4.37.85-8.77,1.59-13.16,2.34l-6.6,1c-2.13.43-4.31,1-6.47,1.54-4.33,1.05-8.64,2.18-13,3.21S197.37,433.69,193,434.68Z" style="fill: rgb(219, 219, 219); transform-origin: 219.105px 429.05px;" id="elct85vrfv21" class="animable"></path><path d="M256.53,422.33q6-2,12.11-3.65c1-.27,2-.55,3.07-.79.52-.12,1-.24,1.58-.32l1.57-.21,6.26-.84c4.18-.57,8.36-1.07,12.54-1.6s8.36-1,12.55-1.5q-6.24,1-12.49,1.93c-4.17.61-8.34,1.25-12.51,1.83l-6.26.87-1.56.23c-.49.08-1,.21-1.51.33l-3.06.75C264.74,420.4,260.66,421.43,256.53,422.33Z" style="fill: rgb(219, 219, 219); transform-origin: 281.37px 417.875px;" id="elemjf11o0kjl" class="animable"></path><path d="M252.85,418.61q5.91-1.65,11.89-2.94c2-.44,4-.91,6-1.18l6.06-.85c4-.58,8.08-1.09,12.12-1.63s8.09-1,12.14-1.53c-4,.68-8.05,1.35-12.08,2s-8.06,1.27-12.09,1.85l-6.05.9c-1,.13-2,.35-3,.55l-3,.59C260.89,417.17,256.88,417.94,252.85,418.61Z" style="fill: rgb(219, 219, 219); transform-origin: 276.955px 414.545px;" id="elm0anuxan9bq" class="animable"></path><path d="M249.27,415.25c3.92-1.06,7.85-2,11.81-2.88,2-.42,3.94-.89,6-1.21l6-.68c4-.46,8.06-.86,12.08-1.28s8.06-.79,12.1-1.15q-6,.84-12,1.6c-4,.51-8,1-12.05,1.49-2,.24-4,.46-6,.73L261.22,413Q255.27,414.26,249.27,415.25Z" style="fill: rgb(219, 219, 219); transform-origin: 273.265px 411.65px;" id="elk8x1ryjwdv" class="animable"></path><path d="M246.17,412.71c3.81-1.46,7.69-2.68,11.63-3.78.49-.13,1-.26,1.49-.36a10.51,10.51,0,0,1,1.55-.22l3.05-.27,6.08-.51c8.12-.63,16.24-1.23,24.37-1.72-8.1.86-16.21,1.61-24.31,2.36l-6.08.55-3,.29a16.94,16.94,0,0,0-2.93.6C254.05,410.66,250.15,411.81,246.17,412.71Z" style="fill: rgb(219, 219, 219); transform-origin: 270.255px 409.28px;" id="elnxxwvbbizrr" class="animable"></path><path d="M242.8,409.67c3.81-1.47,7.69-2.68,11.63-3.78.49-.14,1-.26,1.49-.37a10.51,10.51,0,0,1,1.55-.22l3-.27,6.08-.5c8.12-.64,16.24-1.24,24.37-1.73-8.1.86-16.21,1.62-24.31,2.37l-6.08.55-3,.28a16.94,16.94,0,0,0-2.93.6C250.68,407.62,246.78,408.76,242.8,409.67Z" style="fill: rgb(219, 219, 219); transform-origin: 266.86px 406.235px;" id="elrbn60153jjs" class="animable"></path><path d="M239.43,406.62c3.81-1.46,7.69-2.68,11.62-3.78.5-.13,1-.26,1.5-.36a10.51,10.51,0,0,1,1.55-.22l3-.27,6.08-.51c8.12-.63,16.24-1.23,24.37-1.72-8.1.85-16.21,1.61-24.31,2.36l-6.08.55-3,.29a16.94,16.94,0,0,0-2.93.6C247.31,404.57,243.41,405.72,239.43,406.62Z" style="fill: rgb(219, 219, 219); transform-origin: 263.49px 403.19px;" id="el1hfsznfvqym" class="animable"></path><path d="M236.06,403.58c3.81-1.47,7.69-2.68,11.62-3.78.5-.14,1-.26,1.5-.37a10.51,10.51,0,0,1,1.55-.22l3.05-.27,6.08-.5c8.12-.64,16.24-1.24,24.37-1.73-8.1.86-16.21,1.62-24.31,2.37l-6.08.55-3,.29a16,16,0,0,0-2.93.59C243.94,401.53,240,402.67,236.06,403.58Z" style="fill: rgb(219, 219, 219); transform-origin: 260.145px 400.145px;" id="elxhtof1z0sxc" class="animable"></path><path d="M231.55,400.9c3.81-1.46,7.69-2.68,11.63-3.78.49-.14,1-.26,1.49-.36a10.49,10.49,0,0,1,1.56-.23l3-.26,6.09-.51c8.11-.63,16.23-1.23,24.36-1.72-8.1.85-16.2,1.61-24.31,2.36l-6.08.55-3,.29a15.72,15.72,0,0,0-2.93.6C239.44,398.85,235.53,400,231.55,400.9Z" style="fill: rgb(219, 219, 219); transform-origin: 255.615px 397.47px;" id="eljvibynxk3u" class="animable"></path><path d="M227.17,398.26c3.81-1.46,7.69-2.68,11.63-3.78.49-.13,1-.26,1.49-.36a10.46,10.46,0,0,1,1.56-.22l3-.27,6.09-.51c8.11-.63,16.23-1.23,24.36-1.72-8.1.85-16.2,1.61-24.31,2.36l-6.08.55-3,.29a16.86,16.86,0,0,0-2.94.6C235.06,396.21,231.15,397.36,227.17,398.26Z" style="fill: rgb(219, 219, 219); transform-origin: 251.235px 394.83px;" id="elc9e5u68ev0c" class="animable"></path><path d="M223.8,395.22c3.8-1.46,7.68-2.68,11.61-3.78.49-.13,1-.26,1.49-.36a9.3,9.3,0,0,1,1.56-.22l3-.22,6.08-.4c8.12-.49,16.23-.94,24.36-1.27-8.1.7-16.21,1.3-24.31,1.91l-6.08.44-3,.24a16,16,0,0,0-2.92.6C231.67,393.17,227.77,394.31,223.8,395.22Z" style="fill: rgb(219, 219, 219); transform-origin: 247.85px 392.095px;" id="elcd56znuft94" class="animable"></path><path d="M220.43,392.17c3.8-1.46,7.67-2.67,11.59-3.77.49-.13,1-.26,1.49-.36a9.16,9.16,0,0,1,1.56-.22l3-.16,6.08-.29c8.11-.32,16.22-.59,24.34-.76-8.1.53-16.21,1-24.31,1.41l-6.07.32-3,.19a14.32,14.32,0,0,0-2.91.59C228.29,390.13,224.39,391.27,220.43,392.17Z" style="fill: rgb(219, 219, 219); transform-origin: 244.46px 389.39px;" id="eleo9qvbii6jj" class="animable"></path><path d="M217.06,389.13c3.79-1.46,7.65-2.67,11.56-3.76.5-.14,1-.27,1.49-.37a7.51,7.51,0,0,1,1.57-.21l3-.08,6.08-.08c4-.05,8.1,0,12.15,0s8.09,0,12.14.11c-8.09.24-16.19.4-24.28.57l-6.07.13-3,.1a13.8,13.8,0,0,0-2.9.58C224.9,387.09,221,388.23,217.06,389.13Z" style="fill: rgb(219, 219, 219); transform-origin: 241.055px 386.869px;" id="el92goat9lu2k" class="animable"></path><path d="M196.86,438.8c4.35-1.15,8.72-2.23,13.1-3.29s8.77-2.06,13.16-3.07c2.2-.51,4.38-1,6.62-1.42l6.67-1.11c4.44-.7,8.89-1.4,13.36-2-4.41.93-8.84,1.77-13.27,2.6l-6.65,1.2c-2.17.43-4.38,1-6.57,1.44l-13.2,2.9C205.68,437,201.28,437.93,196.86,438.8Z" style="fill: rgb(219, 219, 219); transform-origin: 223.315px 433.355px;" id="elrusb6qy3xi" class="animable"></path><path d="M259.18,425.86c4.39-1.06,8.8-2.05,13.22-3s8.84-1.88,13.26-2.8c2.22-.46,4.42-.89,6.68-1.28l6.7-1c4.48-.61,9-1.22,13.45-1.73-4.44.85-8.9,1.59-13.36,2.33l-6.7,1.06c-2.19.39-4.41.89-6.62,1.31l-13.3,2.62C268.07,424.24,263.63,425.09,259.18,425.86Z" style="fill: rgb(219, 219, 219); transform-origin: 285.835px 420.955px;" id="el0nc47pf07zaa" class="animable"></path></g><g id="freepik--Device--inject-75" class="animable" style="transform-origin: 267.285px 325.195px;"><rect x="150.09" y="365.77" width="141.81" height="6.36" style="fill: rgb(69, 90, 100); transform-origin: 220.995px 368.95px;" id="elo3ksn8ohcjp" class="animable"></rect><rect x="220.53" y="365.77" width="71.38" height="6.36" style="fill: rgb(55, 71, 79); transform-origin: 256.22px 368.95px;" id="elgim34u4ddeq" class="animable"></rect><polygon points="228.21 372.12 366.41 372.12 384.48 278.26 246.28 278.26 228.21 372.12" style="fill: rgb(69, 90, 100); transform-origin: 306.345px 325.19px;" id="elwork5jor1lr" class="animable"></polygon><path d="M297.93,325.19a7.59,7.59,0,0,0,7.68,8.41,9.36,9.36,0,0,0,9.15-8.41,7.59,7.59,0,0,0-7.68-8.41A9.37,9.37,0,0,0,297.93,325.19Z" style="fill: rgb(166, 166, 166); transform-origin: 306.345px 325.19px;" id="elxjt069psz3f" class="animable"></path><polygon points="372.9 338.42 366.41 372.12 259.24 372.12 372.9 338.42" style="fill: rgb(55, 71, 79); transform-origin: 316.07px 355.27px;" id="elelnyuu2swr" class="animable"></polygon></g><g id="freepik--Plant--inject-75" class="animable" style="transform-origin: 420.347px 301.139px;"><path d="M401.23,269c16.78,16.43,19.6,41.83,16.06,64.09-.09.5-.87.36-.87-.11,0-5.07.15-10.09.14-15.09-.1-.23-.17-.45-.27-.68-4.37-3.18-8.4-6.78-10.89-11.7-2.8-5.51-3.9-11.73-6-17.48-.2-.55.39-.39.78-.11,10.2,7.53,13.45,15.63,16.38,26.45a90,90,0,0,0-1.78-16.85c-2.2-10.27-6.56-20.45-13.94-28.07C400.52,269.17,400.94,268.72,401.23,269Z" style="fill: rgb(38, 50, 56); transform-origin: 408.997px 301.158px;" id="el0nsfa937wlf" class="animable"></path><path d="M398.08,270.93c-2.88.1-4.69,4.71-6.94,6.05a2.16,2.16,0,0,1-3.19-.5c-2.22-3.11.83-7,3.71-9.09-2.06.84-3.76,2.33-6,2.75a2.08,2.08,0,0,1-2.7-1.62c-1-4.24,4.34-6.12,8-6.21-1.77-1.23-6.84-4.58-4.14-6.22s8.68,3.13,10.62,4.71c2.85,2.31,6.25,5.77,6.38,9.39C404,274.41,400.3,271.81,398.08,270.93Z" style="fill: rgb(55, 180, 77); transform-origin: 393.332px 266.612px;" id="elmjl9vlyncmd" class="animable"></path><g id="elc2l9n47djdv"><path d="M398.08,270.93c-2.88.1-4.69,4.71-6.94,6.05a2.16,2.16,0,0,1-3.19-.5c-2.22-3.11.83-7,3.71-9.09-2.06.84-3.76,2.33-6,2.75a2.08,2.08,0,0,1-2.7-1.62c-1-4.24,4.34-6.12,8-6.21-1.77-1.23-6.84-4.58-4.14-6.22s8.68,3.13,10.62,4.71c2.85,2.31,6.25,5.77,6.38,9.39C404,274.41,400.3,271.81,398.08,270.93Z" style="opacity: 0.1; transform-origin: 393.332px 266.612px;" class="animable"></path></g><path d="M398.92,271.64c-3.69-1.68-10.78.74-11.38-.66-1.22-2.84,4.44-4.79,7.5-5.17-2.82-.76-8.21-2-8.05-4.69.2-3.32,8.28-.47,12.36,2.67,5.15,3.94,5.12,7.75,4.27,8.51C402.45,273.35,399.53,271.92,398.92,271.64Z" style="fill: rgb(55, 180, 77); transform-origin: 395.516px 266.158px;" id="el41g7l9yszz4" class="animable"></path><path d="M439.44,267.39c-17.39,15.77-21.17,41.05-18.48,63.42.07.51.85.4.87-.07.19-5.06.23-10.09.44-15.09.1-.22.18-.43.28-.66,4.5-3,8.66-6.45,11.34-11.29,3-5.39,4.34-11.56,6.7-17.23.22-.54-.37-.4-.76-.14-10.49,7.14-14,15.11-17.38,25.81a89.93,89.93,0,0,1,2.41-16.77c2.6-10.18,7.34-20.19,15-27.52C440.15,267.57,439.74,267.11,439.44,267.39Z" style="fill: rgb(38, 50, 56); transform-origin: 430.407px 299.224px;" id="el5fa952irvfb" class="animable"></path><path d="M442.51,269.42c2.88.21,4.52,4.89,6.71,6.32a2.16,2.16,0,0,0,3.2-.38c2.35-3-.56-7-3.35-9.23,2,.92,3.67,2.47,5.87,3a2.09,2.09,0,0,0,2.76-1.52c1.13-4.2-4.11-6.28-7.75-6.51,1.81-1.16,7-4.31,4.38-6.06s-8.8,2.8-10.8,4.3c-2.93,2.2-6.46,5.53-6.73,9.14C436.47,272.68,440.26,270.22,442.51,269.42Z" style="fill: rgb(55, 180, 77); transform-origin: 447.318px 265.463px;" id="elwh6plss272c" class="animable"></path><g id="elnvbrduv5rkc"><path d="M442.51,269.42c2.88.21,4.52,4.89,6.71,6.32a2.16,2.16,0,0,0,3.2-.38c2.35-3-.56-7-3.35-9.23,2,.92,3.67,2.47,5.87,3a2.09,2.09,0,0,0,2.76-1.52c1.13-4.2-4.11-6.28-7.75-6.51,1.81-1.16,7-4.31,4.38-6.06s-8.8,2.8-10.8,4.3c-2.93,2.2-6.46,5.53-6.73,9.14C436.47,272.68,440.26,270.22,442.51,269.42Z" style="opacity: 0.1; transform-origin: 447.318px 265.463px;" class="animable"></path></g><path d="M441.65,270.1c3.75-1.54,10.74,1.15,11.4-.23,1.33-2.79-4.26-4.95-7.3-5.45,2.85-.65,8.28-1.66,8.22-4.38-.08-3.32-8.25-.78-12.45,2.19-5.3,3.75-5.41,7.56-4.59,8.35C438.06,271.67,441,270.35,441.65,270.1Z" style="fill: rgb(55, 180, 77); transform-origin: 445.262px 264.739px;" id="ele4h2hge1axa" class="animable"></path><path d="M421.66,309a172,172,0,0,1-5.4,24.94.62.62,0,0,1-1.22-.24c1.15-7.69,3.23-15.23,4.37-22.92a115,115,0,0,0,1.33-23.52c-.73-12.95-4.24-26.73-12.69-36.86-.19-.24.2-.58.4-.36,16.91,19.73,14.22,43.92,14.21,46.08,2.39-8.16,4.86-17.52,13.92-25.84.39-.36.7-.19.63.42-1.62,15.15-5.83,23.06-14.61,31.15Q422.23,305.51,421.66,309Z" style="fill: rgb(38, 50, 56); transform-origin: 422.61px 292.205px;" id="eljpc1b00woo" class="animable"></path><path d="M407.89,252.71c-3-1.35-7.24,2.52-10.25,2.79-1.59.14-2.77-.49-3.05-2.13-.75-4.35,4.35-6.79,8.42-7.57-2.56-.16-5.08.53-7.59-.15a2.41,2.41,0,0,1-2-3c1.12-4.89,7.59-4.17,11.42-2.42-1.21-2.17-4.79-8.19-1.17-8.54s7.43,7.61,8.65,10.23c1.8,3.83,3.59,9.13,1.9,13C412.27,259.3,409.75,254.75,407.89,252.71Z" style="fill: rgb(55, 180, 77); transform-origin: 404.119px 244.219px;" id="elejsajlqb3n8" class="animable"></path><g id="elal8x7ev5t9a"><path d="M407.89,252.71c-3-1.35-7.24,2.52-10.25,2.79-1.59.14-2.77-.49-3.05-2.13-.75-4.35,4.35-6.79,8.42-7.57-2.56-.16-5.08.53-7.59-.15a2.41,2.41,0,0,1-2-3c1.12-4.89,7.59-4.17,11.42-2.42-1.21-2.17-4.79-8.19-1.17-8.54s7.43,7.61,8.65,10.23c1.8,3.83,3.59,9.13,1.9,13C412.27,259.3,409.75,254.75,407.89,252.71Z" style="opacity: 0.1; transform-origin: 404.119px 244.219px;" class="animable"></path></g><path d="M408.4,253.87c-3-3.6-11.55-4.66-11.47-6.42.16-3.56,7-2.73,10.38-1.58-2.54-2.21-7.52-6.19-6-8.92,1.88-3.34,8.82,3.68,11.49,9,3.35,6.68,1.4,10.62.13,11C411.2,257.42,408.89,254.46,408.4,253.87Z" style="fill: rgb(55, 180, 77); transform-origin: 405.795px 246.542px;" id="el6y5god68l78" class="animable"></path><path d="M432.79,313.6l7.46,57H394.84c.94-5.05,9.39-57.07,9.39-57.07Z" style="fill: rgb(55, 180, 77); transform-origin: 417.545px 342.065px;" id="el114id55ba9f" class="animable"></path></g><g id="freepik--Mug--inject-75" class="animable" style="transform-origin: 92.4668px 388.26px;"><rect x="73.25" y="410.02" width="25.14" height="3.92" style="fill: rgb(69, 90, 100); transform-origin: 85.82px 411.98px;" id="eltboob02rlln" class="animable"></rect><rect x="73.25" y="410.02" width="25.14" height="2.59" style="fill: rgb(38, 50, 56); transform-origin: 85.82px 411.315px;" id="el05zuj5opdwhs" class="animable"></rect><path d="M128.24,399.47a14.21,14.21,0,0,1-14.15,6,14,14,0,0,1-2.55-.73,17.46,17.46,0,0,1-3.56-1.87l3.2-4.74a11.21,11.21,0,0,0,1.88,1.08c6,2.71,9.78-2,10.53-3.09,3.44-4.84,4.68-15.91,1.18-20.16-.23-.32-1.23-.82-5.29.05-.74.16-1.59.35-2.55.62a10,10,0,0,1-2.3.49l-.1-2.84-.28-2.84c.26-.05.67-.16,1.2-.31a36.79,36.79,0,0,1,5.72-1.19c3-.31,6.1.05,8,2.4C134.86,379.34,132.56,393.39,128.24,399.47Z" style="fill: rgb(69, 90, 100); transform-origin: 120.267px 387.76px;" id="elnwubtbiktl" class="animable"></path><path d="M111.18,398.18a11.21,11.21,0,0,0,1.88,1.08l-1.52,5.53a17.46,17.46,0,0,1-3.56-1.87Z" style="fill: rgb(38, 50, 56); transform-origin: 110.52px 401.485px;" id="elwsyop6vl6ug" class="animable"></path><path d="M121.17,370l-1.69,6.07c-.74.16-1.59.35-2.55.62a10,10,0,0,1-2.3.49l-.1-2.84-.28-2.84c.26-.05.67-.16,1.2-.31A36.79,36.79,0,0,1,121.17,370Z" style="fill: rgb(38, 50, 56); transform-origin: 117.71px 373.59px;" id="elttnz4jp1yvp" class="animable"></path><path d="M52.38,362.58s3,25.62,8.23,36.41,12.48,12,17,12H94.05c4.51,0,11.79-1.21,17-12s8.22-36.41,8.22-36.41Z" style="fill: rgb(69, 90, 100); transform-origin: 85.825px 386.785px;" id="elpj754ibcazo" class="animable"></path><path d="M55.68,377.75a1.62,1.62,0,1,1,1.62,1.61A1.62,1.62,0,0,1,55.68,377.75Zm.3,0a1.32,1.32,0,1,0,1.32-1.32A1.32,1.32,0,0,0,56,377.75Zm47.37-8.28a1.61,1.61,0,1,1,1.61,1.61A1.61,1.61,0,0,1,103.35,369.47Zm.3,0a1.32,1.32,0,1,0,1.31-1.32A1.31,1.31,0,0,0,103.65,369.47ZM101,393.08a1.62,1.62,0,1,1,1.61,1.61A1.62,1.62,0,0,1,101,393.08Zm.3,0a1.32,1.32,0,1,0,1.31-1.32A1.32,1.32,0,0,0,101.27,393.08Zm12.83-27.83a1.62,1.62,0,1,1,1.62,1.61A1.62,1.62,0,0,1,114.1,365.25Zm.3,0a1.32,1.32,0,1,0,1.32-1.32A1.32,1.32,0,0,0,114.4,365.25Zm-22.73,10a1.62,1.62,0,1,1,1.61,1.61A1.62,1.62,0,0,1,91.67,375.28Zm.3,0A1.32,1.32,0,1,0,93.28,374,1.31,1.31,0,0,0,92,375.28ZM74.16,392.41A1.62,1.62,0,1,1,75.78,394,1.62,1.62,0,0,1,74.16,392.41Zm.3,0a1.32,1.32,0,1,0,1.32-1.32A1.32,1.32,0,0,0,74.46,392.41Zm10.41-27.16a1.61,1.61,0,1,1,1.61,1.61A1.61,1.61,0,0,1,84.87,365.25Zm.29,0a1.32,1.32,0,1,0,1.32-1.32A1.32,1.32,0,0,0,85.16,365.25ZM86.86,386a1.62,1.62,0,1,1,1.62,1.61A1.63,1.63,0,0,1,86.86,386Zm.3,0a1.32,1.32,0,1,0,1.32-1.32A1.32,1.32,0,0,0,87.16,386Zm15.67,19.27a1.61,1.61,0,1,1,1.61,1.61A1.62,1.62,0,0,1,102.83,405.23Zm.3,0a1.32,1.32,0,1,0,1.31-1.32A1.31,1.31,0,0,0,103.13,405.23ZM63.67,367.66a1.61,1.61,0,1,1,1.61,1.62A1.62,1.62,0,0,1,63.67,367.66Zm.3,0a1.32,1.32,0,1,0,1.31-1.31A1.32,1.32,0,0,0,64,367.66Zm44.63,13.91a1.62,1.62,0,1,1,1.62,1.61A1.63,1.63,0,0,1,108.6,381.57Zm.3,0a1.32,1.32,0,1,0,1.32-1.32A1.32,1.32,0,0,0,108.9,381.57Zm-33.27-4.83a1.61,1.61,0,1,1,1.61,1.61A1.61,1.61,0,0,1,75.63,376.74Zm.29,0a1.32,1.32,0,1,0,1.32-1.31A1.32,1.32,0,0,0,75.92,376.74ZM86.86,402.8a1.62,1.62,0,1,1,1.62,1.61A1.62,1.62,0,0,1,86.86,402.8Zm.3,0a1.32,1.32,0,1,0,1.32-1.32A1.32,1.32,0,0,0,87.16,402.8Zm-13.85,5.82a1.61,1.61,0,1,1,1.61,1.61A1.62,1.62,0,0,1,73.31,408.62Zm.3,0a1.32,1.32,0,1,0,1.31-1.32A1.31,1.31,0,0,0,73.61,408.62Zm-9.94-24.13a1.61,1.61,0,1,1,1.61,1.61A1.61,1.61,0,0,1,63.67,384.49Zm.3,0a1.32,1.32,0,1,0,1.31-1.31A1.32,1.32,0,0,0,64,384.49ZM62.21,399a1.61,1.61,0,1,1,1.61,1.61A1.61,1.61,0,0,1,62.21,399Zm.29,0a1.32,1.32,0,1,0,1.32-1.32A1.32,1.32,0,0,0,62.5,399Z" style="fill: rgb(255, 255, 255); transform-origin: 86.525px 386.925px;" id="elxl56marslp" class="animable"></path></g><g id="freepik--Line--inject-75" class="animable" style="transform-origin: 215.104px 87.7867px;"><path d="M249.84,74.38a11.78,11.78,0,0,0-.52-8c-1.64-3.53-5.19-5-8.8-5.75A56.25,56.25,0,0,0,228,59.54a58.1,58.1,0,0,0-24.14,5.87A39.18,39.18,0,0,0,194,72l-.32.31c-.82.54-1.62,1.1-2.39,1.68a31.37,31.37,0,0,0-7.67,7.92A24.24,24.24,0,0,0,182,84.86a18.7,18.7,0,0,0-1.8,4.61,10.05,10.05,0,0,0,3.14,10c3,2.68,7,3.61,10.94,3.79a62.5,62.5,0,0,0,10.13-.47c1.95-.11,3.88-.31,5.75-.57,1.23-.17,2.45-.37,3.68-.57.57,4.93,2.54,9.81,4.37,14.34,0,.11.23.06.18-.06-1.81-4.58-3.63-9.46-4-14.38a69.81,69.81,0,0,0,18.11-5.35,36.66,36.66,0,0,0,9.46-6.37c2.36-2.24,4.75-5.41,4.59-8.84a15.22,15.22,0,0,0,2.65-4.2A10,10,0,0,0,249.84,74.38ZM205.18,101.2c-5.42.38-11.75,0-16.72-2.66A51.48,51.48,0,0,0,199,100.09a57.14,57.14,0,0,0,11.9-.74c.44,0,.88,0,1.3-.08s1-.12,1.42-.19l0,.77c-2.1.46-4.22.84-6.34,1.15C206.6,101.07,205.89,101.15,205.18,101.2Zm20.28-36.44a30.6,30.6,0,0,1,10.45,2.43c2.91,1.35,5.69,3.69,5.68,7.17,0,.15,0,.29-.05.44a14.89,14.89,0,0,0-3.44-.93c-.31-.05-.63-.07-.94-.1A18.38,18.38,0,0,0,232.88,72a16.11,16.11,0,0,0-7.6-5.19,26.6,26.6,0,0,0-8.39-1.4c1.1-.26,2.19-.49,3.3-.71A42.15,42.15,0,0,1,225.46,64.76Zm15,18a6.18,6.18,0,0,0-1-1c.37-.4.71-.83,1.05-1.28A7.32,7.32,0,0,1,240.51,82.74ZM217.68,98.32q2.7-.52,5.38-1.19a75.44,75.44,0,0,1-8.74,2.56c0-.24,0-.49,0-.73C215.45,98.77,216.56,98.54,217.68,98.32Zm-2.24-5.06a1.22,1.22,0,0,1,.07-.17.57.57,0,0,0,.63.17,116,116,0,0,0,12-4.17,36.24,36.24,0,0,0,10.19-6.18,3.9,3.9,0,0,1,1.3,1.82c-.85.55-1.73,1.06-2.61,1.55a77.34,77.34,0,0,1-21.88,7.88C215.24,93.86,215.33,93.56,215.44,93.26ZM216,92a14.36,14.36,0,0,1,6.08-6.38,37,37,0,0,1,10.41-3.47,8.51,8.51,0,0,1,4.67.12c-.34.29-.68.57-1,.83C230.2,87.54,223,89.8,216,92Zm1.33,3.24a81,81,0,0,0,12.55-3.89A64.07,64.07,0,0,1,218.54,96c-.76.23-1.53.44-2.3.65l-1.65.34h-.08c.07-.43.14-.87.23-1.31C215.6,95.55,216.46,95.39,217.31,95.2Zm-3.62,2a19.27,19.27,0,0,1-3.64.35,7.2,7.2,0,0,1-3.22-.71c2.35-.21,4.69-.51,7-.92C213.77,96.31,213.73,96.74,213.69,97.17Zm24.13-9c-.12.15-.24.31-.36.45s-.42.45-.64.67c-.47.31-.95.6-1.39.88a32.52,32.52,0,0,1-4.75,2.49l-.56.21A67.08,67.08,0,0,0,237.82,88.16Zm.59-7.16-.13-.07a9.62,9.62,0,0,0-6.25-.26,37.05,37.05,0,0,0-10.84,4A15,15,0,0,0,214.5,93c-.14.45-.26.9-.37,1.35a79.26,79.26,0,0,1-8.71,1.18,4.45,4.45,0,0,1-.45-3.27,11.55,11.55,0,0,1,2.33-4.62,52.86,52.86,0,0,0,20.12-7,45.85,45.85,0,0,0,4.85-3.34,4.42,4.42,0,0,0,1.54-2,19.41,19.41,0,0,1,3.41,0,7.88,7.88,0,0,1,2.92,3.51A14,14,0,0,1,238.41,81Zm-47.17-3.55.18-.29A57.19,57.19,0,0,1,208,68c.14-.06.29-.1.43-.15,5.8-1.28,12.26-1.49,17.72.9a15.29,15.29,0,0,1,3.92,2.45l.26.23a36.46,36.46,0,0,0-9.78-.56,38.49,38.49,0,0,0-20,7.53,26.64,26.64,0,0,0-7.38,7.8,4.66,4.66,0,0,1-2-1C188.92,83.32,190,79.63,191.24,77.45Zm41.11-3.59a43.83,43.83,0,0,0-6.91,1.49c-7.05,2-14.32,5.09-19.11,10.88l-.12.14c-1.42.17-2.85.3-4.28.34a50.69,50.69,0,0,1-5.65-.13c-.53,0-1.11-.08-1.7-.14a18.21,18.21,0,0,1,1.91-2.55,34.6,34.6,0,0,1,7.74-6.42,37.3,37.3,0,0,1,19-5.49,33.16,33.16,0,0,1,8.7,1A3.55,3.55,0,0,1,232.35,73.86Zm-.22,1.57A9.39,9.39,0,0,1,230.18,77c-.79.58-1.61,1.14-2.44,1.67a49,49,0,0,1-4.68,2.66A51,51,0,0,1,208.78,86a27.36,27.36,0,0,1,2.14-2,34.27,34.27,0,0,1,9-5.18,57,57,0,0,1,10.38-3.15C230.89,75.61,231.51,75.52,232.13,75.43Zm-38.24,12.3a43.82,43.82,0,0,0,11.15.21h0c-1.54,2.31-2.66,5.16-1.61,7.72l-1.15.06c-2.65.07-6.05-.15-8-2.29C192.83,91.71,193,89.64,193.89,87.73Zm46.32-11.34c-.17-.22-.36-.41-.54-.61a13.22,13.22,0,0,1,1.59.59,8.12,8.12,0,0,1-.38,1A7.16,7.16,0,0,0,240.21,76.39ZM184.62,95.67a8.7,8.7,0,0,1-2.36-4.14,7.89,7.89,0,0,1,.93-5.37A26.46,26.46,0,0,1,189,79.28a9.85,9.85,0,0,0-.35,1.52,6.68,6.68,0,0,0,.58,4.2,5.24,5.24,0,0,0,3.4,2.45,7.31,7.31,0,0,0-.53,4.25,6,6,0,0,0,2.66,3.76c2.73,1.79,6.32,1.73,9.45,1.56h.12a5.83,5.83,0,0,0,1.78,1.44,56.34,56.34,0,0,1-8.32.09,49.85,49.85,0,0,1-10.29-1.8,18.4,18.4,0,0,1-2.63-.87C184.76,95.8,184.68,95.74,184.62,95.67Zm57-12.34a8.93,8.93,0,0,0-.13-4.33,11.07,11.07,0,0,0,.91-2,5.23,5.23,0,0,1,2.44,3.27,29.45,29.45,0,0,1-2.62,2.62Zm4.38-4.51a7.28,7.28,0,0,0-3.24-3.41,7.71,7.71,0,0,0,0-2.25c-.54-3.49-3.42-5.85-6.47-7.22a30.6,30.6,0,0,0-8.59-2.36l.61-.07c3.89-.4,7.95-.76,11.78.25a11.45,11.45,0,0,1,7.59,5.8,7.89,7.89,0,0,1,.23,5.92A15.7,15.7,0,0,1,246.05,78.82Zm-37.44-14a57.06,57.06,0,0,1,22.64-3.87,42.34,42.34,0,0,1,11.42,1.67,9.11,9.11,0,0,1,4.44,2.83,8,8,0,0,1,1.1,1.93c-.16-.22-.3-.44-.47-.66-5.3-6.44-14.73-5.37-22.08-4.4q-3.25.44-6.51,1.09a51,51,0,0,0-6,.84,55.37,55.37,0,0,0-10,3.08A54.37,54.37,0,0,1,208.61,64.81Zm-25.79,32a6.93,6.93,0,0,1-.51-.86c.08.09.14.18.22.26a6.24,6.24,0,0,0,1.47,1,16.33,16.33,0,0,0,2.66,2.06,22.68,22.68,0,0,0,5.87,2.52l-.65-.07C188.41,101.15,184.89,99.74,182.82,96.76Zm53.24-4.31a40.7,40.7,0,0,1-5.78,3c.84-.43,1.67-.88,2.48-1.38.66-.4,1.31-.84,2-1.3a24.72,24.72,0,0,0,4.93-3.43,5.19,5.19,0,0,0,1.9-4l.05,0,.2-.17a29.55,29.55,0,0,0,3-2.38,10.17,10.17,0,0,1-1.12,2.57C241.88,88.3,238.93,90.61,236.06,92.45Z" style="fill: rgb(38, 50, 56); transform-origin: 215.104px 87.7867px;" id="elahi04foqi0u" class="animable"></path></g><defs>     <filter id="active" height="200%">         <feMorphology in="SourceAlpha" result="DILATED" operator="dilate" radius="2"></feMorphology>                <feFlood flood-color="#32DFEC" flood-opacity="1" result="PINK"></feFlood>        <feComposite in="PINK" in2="DILATED" operator="in" result="OUTLINE"></feComposite>        <feMerge>            <feMergeNode in="OUTLINE"></feMergeNode>            <feMergeNode in="SourceGraphic"></feMergeNode>        </feMerge>    </filter>    <filter id="hover" height="200%">        <feMorphology in="SourceAlpha" result="DILATED" operator="dilate" radius="2"></feMorphology>                <feFlood flood-color="#ff0000" flood-opacity="0.5" result="PINK"></feFlood>        <feComposite in="PINK" in2="DILATED" operator="in" result="OUTLINE"></feComposite>        <feMerge>            <feMergeNode in="OUTLINE"></feMergeNode>            <feMergeNode in="SourceGraphic"></feMergeNode>        </feMerge>            <feColorMatrix type="matrix" values="0   0   0   0   0                0   1   0   0   0                0   0   0   0   0                0   0   0   1   0 "></feColorMatrix>    </filter></defs></svg>